<?xml version="1.0" encoding="UTF-8" standalone="no"?>
<!DOCTYPE svg PUBLIC "-//W3C//DTD SVG 1.1//EN"
 "http://www.w3.org/Graphics/SVG/1.1/DTD/svg11.dtd">
<!-- Generated by graphviz version 7.0.5 (20221223.1930)
 -->
<!-- Title: h Pages: 1 -->
<svg width="228pt" height="620pt"
 viewBox="0.00 0.00 227.74 620.00" xmlns="http://www.w3.org/2000/svg" xmlns:xlink="http://www.w3.org/1999/xlink">
<g id="graph0" class="graph" transform="scale(1 1) rotate(0) translate(4 616)">
<title>h</title>
<polygon fill="white" stroke="none" points="-4,4 -4,-616 223.74,-616 223.74,4 -4,4"/>
<!-- start -->
<g id="node1" class="node">
<title>start</title>
<ellipse fill="none" stroke="black" cx="31.2" cy="-594" rx="27" ry="18"/>
<text text-anchor="middle" x="31.2" y="-590.3" font-family="Times New Roman,serif" font-size="14.00">start</text>
</g>
<!-- 0 -->
<g id="node2" class="node">
<title>0</title>
<ellipse fill="none" stroke="black" cx="31.2" cy="-522" rx="31.4" ry="18"/>
<text text-anchor="middle" x="31.2" y="-518.3" font-family="Times New Roman,serif" font-size="14.00">jmp 3</text>
</g>
<!-- start&#45;&gt;0 -->
<g id="edge1" class="edge">
<title>start&#45;&gt;0</title>
<path fill="none" stroke="black" d="M31.2,-575.7C31.2,-568.41 31.2,-559.73 31.2,-551.54"/>
<polygon fill="black" stroke="black" points="34.7,-551.62 31.2,-541.62 27.7,-551.62 34.7,-551.62"/>
</g>
<!-- 2 -->
<g id="node4" class="node">
<title>2</title>
<ellipse fill="none" stroke="black" cx="90.2" cy="-450" rx="32.49" ry="18"/>
<text text-anchor="middle" x="90.2" y="-446.3" font-family="Times New Roman,serif" font-size="14.00">set i 0</text>
</g>
<!-- 0&#45;&gt;2 -->
<g id="edge2" class="edge">
<title>0&#45;&gt;2</title>
<path fill="none" stroke="black" d="M44.29,-505.46C51.78,-496.58 61.33,-485.25 69.78,-475.22"/>
<polygon fill="black" stroke="black" points="72.4,-477.55 76.16,-467.65 67.04,-473.04 72.4,-477.55"/>
</g>
<!-- 1 -->
<g id="node3" class="node">
<title>1</title>
<ellipse fill="none" stroke="black" cx="150.2" cy="-522" rx="69.59" ry="18"/>
<text text-anchor="middle" x="150.2" y="-518.3" font-family="Times New Roman,serif" font-size="14.00">ios never output</text>
</g>
<!-- 1&#45;&gt;2 -->
<g id="edge3" class="edge">
<title>1&#45;&gt;2</title>
<path fill="none" stroke="black" d="M135.67,-504.05C128.31,-495.47 119.24,-484.89 111.15,-475.44"/>
<polygon fill="black" stroke="black" points="113.92,-473.29 104.75,-467.98 108.6,-477.85 113.92,-473.29"/>
</g>
<!-- 3 -->
<g id="node5" class="node">
<title>3</title>
<ellipse fill="none" stroke="black" cx="90.2" cy="-378" rx="38.19" ry="18"/>
<text text-anchor="middle" x="90.2" y="-374.3" font-family="Times New Roman,serif" font-size="14.00">set e 10</text>
</g>
<!-- 2&#45;&gt;3 -->
<g id="edge4" class="edge">
<title>2&#45;&gt;3</title>
<path fill="none" stroke="black" d="M90.2,-431.7C90.2,-424.41 90.2,-415.73 90.2,-407.54"/>
<polygon fill="black" stroke="black" points="93.7,-407.62 90.2,-397.62 86.7,-407.62 93.7,-407.62"/>
</g>
<!-- 4 -->
<g id="node6" class="node">
<title>4</title>
<ellipse fill="none" stroke="black" cx="90.2" cy="-306" rx="27" ry="18"/>
<text text-anchor="middle" x="90.2" y="-302.3" font-family="Times New Roman,serif" font-size="14.00">iov i</text>
</g>
<!-- 3&#45;&gt;4 -->
<g id="edge5" class="edge">
<title>3&#45;&gt;4</title>
<path fill="none" stroke="black" d="M90.2,-359.7C90.2,-352.41 90.2,-343.73 90.2,-335.54"/>
<polygon fill="black" stroke="black" points="93.7,-335.62 90.2,-325.62 86.7,-335.62 93.7,-335.62"/>
</g>
<!-- 5 -->
<g id="node7" class="node">
<title>5</title>
<ellipse fill="none" stroke="black" cx="63.2" cy="-234" rx="27" ry="18"/>
<text text-anchor="middle" x="63.2" y="-230.3" font-family="Times New Roman,serif" font-size="14.00">inc i</text>
</g>
<!-- 4&#45;&gt;5 -->
<g id="edge6" class="edge">
<title>4&#45;&gt;5</title>
<path fill="none" stroke="black" d="M83.66,-288.05C80.68,-280.32 77.07,-270.96 73.71,-262.27"/>
<polygon fill="black" stroke="black" points="77.08,-261.27 70.22,-253.2 70.55,-263.79 77.08,-261.27"/>
</g>
<!-- 6 -->
<g id="node8" class="node">
<title>6</title>
<ellipse fill="none" stroke="black" cx="90.2" cy="-162" rx="42.79" ry="18"/>
<text text-anchor="middle" x="90.2" y="-158.3" font-family="Times New Roman,serif" font-size="14.00">jif i &lt; e 5</text>
</g>
<!-- 5&#45;&gt;6 -->
<g id="edge7" class="edge">
<title>5&#45;&gt;6</title>
<path fill="none" stroke="black" d="M69.73,-216.05C72.64,-208.52 76.14,-199.44 79.42,-190.94"/>
<polygon fill="black" stroke="black" points="82.66,-192.28 82.99,-181.69 76.12,-189.76 82.66,-192.28"/>
</g>
<!-- 6&#45;&gt;4 -->
<g id="edge8" class="edge">
<title>6&#45;&gt;4</title>
<path fill="none" stroke="black" d="M93.85,-180.09C95.87,-190.43 98.18,-203.91 99.2,-216 100.54,-231.94 100.54,-236.06 99.2,-252 98.52,-260.03 97.28,-268.67 95.93,-276.6"/>
<polygon fill="black" stroke="black" points="92.49,-275.95 94.12,-286.42 99.37,-277.21 92.49,-275.95"/>
</g>
<!-- 7 -->
<g id="node9" class="node">
<title>7</title>
<ellipse fill="none" stroke="black" cx="90.2" cy="-90" rx="46.29" ry="18"/>
<text text-anchor="middle" x="90.2" y="-86.3" font-family="Times New Roman,serif" font-size="14.00">ios ended</text>
</g>
<!-- 6&#45;&gt;7 -->
<g id="edge9" class="edge">
<title>6&#45;&gt;7</title>
<path fill="none" stroke="black" d="M90.2,-143.7C90.2,-136.41 90.2,-127.73 90.2,-119.54"/>
<polygon fill="black" stroke="black" points="93.7,-119.62 90.2,-109.62 86.7,-119.62 93.7,-119.62"/>
</g>
<!-- 8 -->
<g id="node10" class="node">
<title>8</title>
<ellipse fill="none" stroke="black" cx="90.2" cy="-18" rx="27" ry="18"/>
<text text-anchor="middle" x="90.2" y="-14.3" font-family="Times New Roman,serif" font-size="14.00">8</text>
</g>
<!-- 7&#45;&gt;8 -->
<g id="edge10" class="edge">
<title>7&#45;&gt;8</title>
<path fill="none" stroke="black" d="M90.2,-71.7C90.2,-64.41 90.2,-55.73 90.2,-47.54"/>
<polygon fill="black" stroke="black" points="93.7,-47.62 90.2,-37.62 86.7,-47.62 93.7,-47.62"/>
</g>
</g>
</svg>
